<svg width="440.7" height="56.57832463212957" viewBox="0 0 417.18063866487194 53.558841853007195" className="css-1j8o68f"><defs id="SvgjsDefs5475"><linearGradient id="SvgjsLinearGradient5482"><stop id="SvgjsStop5483" stop-color="#616161" offset="0"></stop><stop id="SvgjsStop5484" stop-color="#e6e7e8" offset="0.5"></stop><stop id="SvgjsStop5485" stop-color="#616161" offset="1"></stop></linearGradient><linearGradient id="SvgjsLinearGradient5486"><stop id="SvgjsStop5487" stop-color="#616161" offset="0"></stop><stop id="SvgjsStop5488" stop-color="#e6e7e8" offset="0.5"></stop><stop id="SvgjsStop5489" stop-color="#616161" offset="1"></stop></linearGradient><linearGradient id="SvgjsLinearGradient5490"><stop id="SvgjsStop5491" stop-color="#616161" offset="0"></stop><stop id="SvgjsStop5492" stop-color="#e6e7e8" offset="0.5"></stop><stop id="SvgjsStop5493" stop-color="#616161" offset="1"></stop></linearGradient></defs><g id="SvgjsG5476" featurekey="nameLeftFeature-0" transform="matrix(1.1940174288471412,0,0,1.1940174288471412,-1.2895388743965814,-6.292351200368024)" fill="url(#SvgjsLinearGradient5482)"><path d="M1.08 39.4 l0 -5.64 c0.48 0.12 1.08 0.24 1.76 0.32 c0.68 0.12 1.4 0.2 2.16 0.24 s1.52 0.08 2.32 0.12 s1.56 0.08 2.24 0.08 c1.88 0 3.2 -0.12 4 -0.32 c0.76 -0.2 1.16 -0.56 1.16 -1.12 c0 -0.48 -0.36 -0.84 -0.72 -1.12 c-1.32 -0.88 -2.88 -1.24 -4.44 -1.6 c-4.4 -0.88 -8.44 -2.64 -8.44 -7.68 c0 -5.96 5.64 -7.36 10.48 -7.36 c2.68 0 5.4 0.28 8 0.92 l0 5.64 c-0.4 -0.12 -0.92 -0.2 -1.56 -0.32 c-0.68 -0.08 -1.36 -0.16 -2.12 -0.24 c-1.56 -0.16 -3.04 -0.24 -4.6 -0.24 c-0.88 0 -2.72 0 -3.56 0.32 c-0.56 0.2 -0.92 0.44 -0.92 1.08 c0 0.32 0.08 0.6 0.24 0.84 c0.16 0.28 0.44 0.48 0.8 0.68 c1.08 0.6 2.48 0.96 3.68 1.24 c1 0.24 2 0.52 3.04 0.8 c3.52 0.96 5.84 2.92 5.84 6.68 c0 6.2 -6.16 7.52 -11.12 7.52 c-2.72 0 -5.56 -0.2 -8.24 -0.84 z M29.759999999999998 26.52 l0 13.48 l-6 0 l0 -24.48 l6 0 l7.64 13.52 l7.64 -13.52 l6 0 l0 24.48 l-6 0 l0 -13.48 l-4.64 7.96 l-6 0 z M70.8 35.04 l-9 0 l-1.76 4.96 l-6.52 0 l9.8 -24.48 l6 0 l9.8 24.48 l-6.56 0 z M63.76 29.48 l5.08 0 l-2.52 -7.12 z M87.56 21.16 l0 5.84 l5.6 0 c1.84 0 2.92 -1.08 2.92 -2.92 s-1.08 -2.92 -2.92 -2.92 l-5.6 0 z M96.64 30.96 c1.12 1.52 2.24 3.04 3.4 4.52 c1.12 1.48 2.24 3 3.36 4.52 l-7.32 0 c-1.44 -1.92 -2.84 -3.84 -4.24 -5.76 c-1.4 -1.88 -2.84 -3.8 -4.28 -5.72 l0 11.48 l-6 0 l0 -24.48 l11.6 0 c4.56 0 8.44 3.48 8.44 8.08 c0 3.24 -2 6.08 -4.96 7.36 z M104.48 15.52 l20.4 0 l0 5.56 l-7.2 0 l0 18.92 l-6 0 l0 -18.92 l-7.2 0 l0 -5.56 z"></path></g><g id="SvgjsG5477" featurekey="inlineSymbolFeature-0" transform="matrix(0.6872024616263954,0,0,0.6872024616263954,164.56398769186802,-7.580702154816175)" fill="url(#SvgjsLinearGradient5486)"><path xmlns="http://www.w3.org/2000/svg" style="text-indent:0;text-transform:none;direction:ltr;block-progression:tb;baseline-shift:baseline;color:;enable-background:accumulate;" d="M 50 11.03125 L 48.375 13.84375 L 44.65625 20.3125 L 44.125 21.25 L 44.65625 22.1875 L 70.40625 66.78125 L 46.75 66.78125 L 45.65625 66.78125 L 45.125 67.71875 L 41.40625 74.21875 L 39.78125 77 L 43 77 L 84.875 77.03125 L 88.09375 77 L 86.46875 74.1875 L 51.625 13.84375 L 50 11.03125 z M 43.09375 23 L 41.46875 25.8125 L 6.625 86.1875 L 5 88.96875 L 8.25 88.96875 L 15.71875 88.96875 L 16.8125 88.96875 L 17.34375 88.03125 L 43.09375 43.4375 L 54.9375 63.90625 L 55.4375 64.84375 L 56.53125 64.84375 L 64 64.84375 L 67.25 64.84375 L 65.625 62.0625 L 44.71875 25.8125 L 43.09375 23 z M 42.96875 47.125 L 41.375 49.9375 L 20.4375 86.15625 L 18.8125 88.96875 L 22.0625 88.96875 L 91.78125 88.96875 L 95 88.96875 L 93.375 86.15625 L 89.65625 79.6875 L 89.09375 78.75 L 88.03125 78.75 L 36.53125 78.75 L 48.34375 58.28125 L 48.875 57.34375 L 48.34375 56.40625 L 44.59375 49.9375 L 42.96875 47.125 z " fill="url(#SvgjsLinearGradient5486)" fill-opacity="1" fill-rule="nonzero" stroke="none" marker="none" visibility="visible" display="inline" overflow="visible"></path></g><g id="SvgjsG5478" featurekey="nameRightFeature-0" transform="matrix(1.1921038955113488,0,0,1.1921038955113488,236.79148892868457,-6.263030178553759)" fill="url(#SvgjsLinearGradient5490)"><path d="M29.12 27.439999999999998 c1.76 1.24 2.8 3.08 2.8 5.24 c0 4.16 -3.84 7.32 -7.84 7.32 l-13 0 l0 -24.48 l12.2 0 c3.2 0 5.84 1.72 7.24 4.56 c0.4 0.92 0.6 1.84 0.6 2.8 c0 1.8 -0.72 3.28 -2 4.56 z M17.08 21.08 l0 3.92 l6.2 0 c1.04 0 1.84 -1 1.84 -2 c0 -1.04 -0.76 -1.92 -1.84 -1.92 l-6.2 0 z M17.08 30.560000000000002 l0 3.88 l7 0 c1.08 0 1.84 -0.88 1.84 -1.92 c0 -0.52 -0.2 -1 -0.56 -1.4 c-0.36 -0.36 -0.8 -0.56 -1.28 -0.56 l-7 0 z M50.2 15.52 l6 0 l0 14.48 c0 6.36 -4.56 10.2 -10.6 10.2 c-6.2 0 -10.6 -4.08 -10.6 -10.2 l0 -14.48 l6 0 l0 14.48 c0 2.88 1.72 4.64 4.6 4.64 c2.96 0 4.6 -1.72 4.6 -4.64 l0 -14.48 z M69 40 l-8.6 0 l0 -24.48 l8.6 0 c7.48 0 12.6 4.88 12.6 12.24 c0 7.56 -5.4 12.24 -12.6 12.24 z M66.4 21.08 l0 13.36 l2.6 0 c4.24 0 6.6 -2.68 6.6 -6.68 c0 -0.92 -0.12 -1.76 -0.36 -2.6 c-1.04 -2.92 -3.32 -4.08 -6.24 -4.08 l-2.6 0 z M106.96000000000001 25 l0 13.6 c-2.84 1.08 -6.4 1.68 -9.44 1.68 c-7.8 0 -13.04 -4.68 -13.04 -12.4 c0 -8.44 6.28 -12.56 13.96 -12.56 c0.52 0 1.08 0 1.72 0.04 c0.6 0.04 1.24 0.12 1.92 0.16 c1.24 0.16 2.48 0.32 3.68 0.68 l0 6.12 c-0.44 -0.2 -0.92 -0.36 -1.48 -0.52 c-0.6 -0.12 -1.2 -0.24 -1.84 -0.36 c-1.28 -0.24 -2.64 -0.32 -3.96 -0.32 c-5.08 0 -8 1.56 -8 6.76 c0 5.08 2.68 6.6 7.24 6.6 c0.48 0 1 -0.04 1.56 -0.08 c0.52 -0.04 1.08 -0.08 1.68 -0.12 l0 -3.72 l-5.2 0 l0 -5.56 l11.2 0 z M110.76 15.52 l18.2 0 l0 5.56 l-12.2 0 l0 3.92 l9.8 0 l0 5.56 l-9.8 0 l0 3.88 l12.2 0 l0 5.56 l-18.2 0 l0 -24.48 z M130.92000000000002 15.52 l20.4 0 l0 5.56 l-7.2 0 l0 18.92 l-6 0 l0 -18.92 l-7.2 0 l0 -5.56 z"></path></g></svg>